<mxfile host="app.diagrams.net" modified="2024-03-26T07:47:11.642Z" agent="Mozilla/5.0 (Windows NT 10.0; Win64; x64) AppleWebKit/537.36 (KHTML, like Gecko) Chrome/123.0.0.0 Safari/537.36" version="24.1.0" etag="XSO8hqkLlOEFBMN7R1m7" type="github">
  <diagram name="Page-1" id="bNbp0Ml33X3vvfz0ccIp">
    <mxGraphModel>
      <root>
        <mxCell id="0" />
        <mxCell id="1" parent="0" />
      </root>
    </mxGraphModel>
  </diagram>
</mxfile>
